<svg xmlns="http://www.w3.org/2000/svg" width="223" height="89" fill="currentColor"><g clip-path="url(#a)"><path d="M55.503 18.696h10.104a1.946 1.946 0 0 0 1.943-1.948v-7.79c0-1.075-.87-1.947-1.943-1.947h-3.186a1.863 1.863 0 0 1-1.866-1.87V1.947C60.555.872 59.685 0 58.612 0h-27.98a1.946 1.946 0 0 0-1.944 1.947v3.194c0 1.036-.832 1.87-1.865 1.87h-3.187a1.946 1.946 0 0 0-1.943 1.947v3.194c0 1.036-.832 1.87-1.866 1.87h-3.186a1.946 1.946 0 0 0-1.943 1.947s-.467 1.153-.467 23.253c0 19.763.467 21.913.467 21.913 0 1.075.87 1.948 1.943 1.948h3.186c1.034 0 1.866.833 1.866 1.87v3.271c0 1.036.831 1.87 1.865 1.87h3.265c1.033 0 1.865.833 1.865 1.87v3.193c0 1.075.87 1.948 1.943 1.948h27.981a1.946 1.946 0 0 0 1.943-1.948v-3.194c0-1.036.832-1.87 1.866-1.87h5.145a1.946 1.946 0 0 0 1.943-1.947v-9.285c0-1.075-.87-1.948-1.943-1.948H55.503a1.946 1.946 0 0 0-1.943 1.948v4.69c0 1.035-.832 1.869-1.866 1.869H37.55a1.863 1.863 0 0 1-1.866-1.87v-4.752c0-1.075-.87-1.947-1.943-1.947H29c-1.034 0-1.609.148-1.865-1.87-.078-.646-.125-1.44-.18-2.508-.147-2.68-.287-5.5-.287-13.539 0-11.24.288-16.81.466-18.369.18-1.558.832-1.87 1.866-1.87h4.741a1.946 1.946 0 0 0 1.943-1.947v-3.193c0-1.037.832-1.87 1.866-1.87h14.145c1.034 0 1.866.833 1.866 1.87v3.193c0 1.075.87 1.948 1.943 1.948M20.247 74.822h-2.293a.814.814 0 0 1-.808-.81v-2.298c0-.896-.723-1.62-1.617-1.62H9.327c-.894 0-1.617.724-1.617 1.62v2.298c0 .444-.365.81-.808.81H4.609c-.894 0-1.617.725-1.617 1.62v6.217c0 .896.723 1.62 1.617 1.62h2.293c.443 0 .808.366.808.81v2.299c0 .895.723 1.62 1.617 1.62h6.202c.894 0 1.617-.725 1.617-1.62v-2.299c0-.444.365-.81.808-.81h2.293c.894 0 1.617-.724 1.617-1.62v-6.216c0-.896-.723-1.62-1.617-1.62M221.135 35.04h-1.71a1.863 1.863 0 0 1-1.866-1.87v-3.272c0-1.036-.831-1.87-1.865-1.87h-3.265a1.863 1.863 0 0 1-1.865-1.87v-3.271c0-1.036-.832-1.87-1.865-1.87h-20.971a1.863 1.863 0 0 0-1.865 1.87v3.965c0 .514-.42.935-.933.935h-3.559c-.513 0-.84-.32-.933-.935l-.622-3.918c-.148-1.099-.676-1.777-1.788-1.777l-3.653-.14h-2.052a3.736 3.736 0 0 0-3.73 3.74V61.68a3.736 3.736 0 0 1-3.731 3.739h-8.394a1.863 1.863 0 0 1-1.866-1.87V36.714c0-11.825-7.461-18.813-22.556-18.813-13.718 0-20.325 5.04-21.203 14.443-.109 1.153.552 1.815 1.702 1.815l7.757.569c1.143.1 1.594-.554 1.811-1.652.77-3.74 4.174-5.827 9.933-5.827 7.081 0 10.042 3.358 10.042 9.076v3.014c0 1.036-.831 1.87-1.865 1.87l-.342-.024h-9.715c-15.421 0-22.984 5.983-22.984 17.956 0 3.802.778 7.058 2.254 9.738h-.59c-1.765-1.27-2.457-2.236-3.055-2.93-.256-.295-.653-.537-1.345-.537h-1.717l-5.993.008h-3.264a3.736 3.736 0 0 1-3.731-3.74V1.769C89.74.654 89.072 0 87.969 0H79.55c-1.034 0-1.865.732-1.865 1.768l-.024 54.304v13.554c0 4.13 3.343 7.479 7.462 7.479h50.84c8.448-.429 8.604-3.42 9.436-4.542.645 3.56 1.865 4.347 4.71 4.518 8.137.117 18.343.032 18.49.024h4.975c4.119 0 6.684-3.35 6.684-7.479l.777-27.264c0-1.036.832-1.87 1.866-1.87h2.021a1.56 1.56 0 0 0 1.554-1.558v-3.583c0-1.036.832-1.87 1.866-1.87h11.868a3.37 3.37 0 0 1 3.366 3.373v3.249c0 1.075.87 1.947 1.943 1.947h4.119c.513 0 .933.42.933.935v32.25c0 1.036.831 1.87 1.865 1.87h6.84a3.736 3.736 0 0 0 3.731-3.74V36.91c0-1.036-.832-1.87-1.866-1.87zM142.64 54.225c0 8.927-6.132 14.715-15.335 14.715-6.606 0-9.793-2.953-9.793-8.748 0-6.442 3.832-9.636 11.62-9.636h13.508v3.669"/></g><defs><clipPath id="a"><path d="M0 0h223v89H0z"/></clipPath></defs></svg>